<?xml version="1.0" encoding="utf-8"?>
<!-- Generator: Adobe Illustrator 21.0.0, SVG Export Plug-In . SVG Version: 6.00 Build 0)  -->
<svg version="1.1" id="Layer_1" xmlns="http://www.w3.org/2000/svg" xmlns:xlink="http://www.w3.org/1999/xlink" x="0px" y="0px"
	 viewBox="0 0 2500 841.8" style="enable-background:new 0 0 2500 841.8;" xml:space="preserve">
<g>
	<g>
		<path d="M67.7,841.8H9.8L0,521h56.6c31.5,86.1,71.7,151,120.5,194.6c48.8,43.6,105.8,65.4,170.9,65.4c39.3,0,71.1-10.8,95.3-32.4
			c24.2-21.6,36.4-50,36.4-85.1c0-29.1-9.6-53.7-28.7-73.9c-19.1-20.2-51.6-39.5-97.6-58c-14.2-5.7-35.4-14-63.7-25
			c-72.6-28.3-124.1-51.5-154.5-69.6c-41.1-24.1-71.3-51.2-90.8-81.3c-19.5-30.1-29.2-64.6-29.2-103.6c0-67.6,24.2-123.3,72.7-167.1
			c48.5-43.7,110.6-65.6,186.4-65.6c42.1,0,86.4,7.9,133,23.5c46.5,15.7,72.5,23.5,77.8,23.5c8.8,0,16.6-3.6,23.3-10.7
			c6.7-7.1,13.5-18.9,20.2-35.3h51.1l3.2,255.6h-51.1c-24.4-65.1-57.1-113.8-98-146.1C393,97.8,343.4,81.6,285,81.6
			c-40.7,0-73.2,9.3-97.4,27.9c-24.3,18.6-36.4,43.1-36.4,73.5c0,45.6,61.6,91.4,184.7,137.4l4.2,1.6c65.5,24.1,112.2,42.9,140,56.6
			c27.8,13.6,50.2,27.4,67.2,41.2c28.7,24.4,49.8,51.1,63.2,79.9c13.5,28.9,20.2,61.7,20.2,98.5c0,75.1-24.9,134.5-74.7,178.2
			s-117.4,65.6-202.8,65.6c-27.6,0-55.5-3.3-83.6-9.8c-28.1-6.5-59.4-17-93.7-31.5c-5.7-2.5-13.3-5.8-22.8-10.1
			c-21.2-9.9-35.4-14.8-42.5-14.8c-10.3,0-19.1,5.7-26.6,17C76.7,803.9,71.3,820.3,67.7,841.8z"/>
		<path d="M1072.6,737.4c-29.4,34.2-60,59.6-91.9,76.2c-31.9,16.6-66.1,24.9-102.5,24.9c-45,0-81.3-12.9-108.9-38.7
			c-27.6-25.8-41.4-59.6-41.4-101.4c0-54.1,26.4-101.1,79.2-140.9c52.8-39.8,141.3-79.2,265.6-118.1c0.4-5,0.6-10.5,0.8-16.7
			c0.2-6.2,0.3-14.8,0.3-25.8c0-46.1-7.8-78.4-23.4-97s-42.1-27.9-79.7-27.9c-21.2,0-40,3.7-56.3,11.2
			c-16.3,7.4-24.4,14.9-24.4,22.3c0,1.1,1.8,3.4,5.3,6.9c18.2,18.4,27.3,38.6,27.3,60.6c0,19.1-6.9,34.8-20.7,47.1
			s-31.7,18.3-53.6,18.3c-25.8,0-46-7.3-60.5-22c-14.5-14.7-21.8-35.3-21.8-61.9c0-41.8,22.4-76.5,67.2-104.1
			c44.8-27.6,102.1-41.4,171.8-41.4c43.9,0,83.5,6.1,118.7,18.3c35.2,12.2,63.5,29.7,84.7,52.3c13.8,14.5,23.6,31.4,29.5,50.7
			c5.8,19.3,8.8,51.4,8.8,96.4v9.6v256.3c0,18.6,1.7,30.7,5,36.4c3.4,5.7,9.3,8.6,17.8,8.6c7.4,0,13.5-3.3,18.3-9.9
			c4.8-6.6,7.7-15.6,8.8-27.1h42.5c-2.1,43.9-14.4,77.9-36.9,102c-22.5,24.1-53.3,36.1-92.6,36.1c-35,0-64.6-8.9-88.6-26.7
			C1096.9,794,1080.8,769.2,1072.6,737.4z M1072.6,494.9c-64.4,25.2-110.8,50.6-139.2,76.1c-28.3,25.5-42.5,54.6-42.5,87.2
			c0,23.8,6.9,43.3,20.7,58.5c13.8,15.3,31.7,22.9,53.7,22.9c36.5,0,63.6-16.3,81.5-48.9c17.9-32.6,26.8-82.3,26.8-149
			c0-12.8-0.1-22.4-0.3-29C1073.3,506.1,1073,500.2,1072.6,494.9z"/>
		<path d="M1628.6,670.7c0,44.3,4.2,71.2,12.7,81c8.5,9.7,25.6,15.1,51.4,16.2v53.3h-317.6v-53.3c33.5-1.4,55.3-7.2,65.4-17.2
			c10.1-10.1,15.1-36.7,15.1-79.9V170.6c0-42.5-4.9-68.7-14.6-78.6c-9.7-9.9-31.7-15.9-65.9-18V20.7h31.2c38.6,0,76.4-1.8,113.5-5.3
			c37-3.5,73.3-8.7,108.7-15.4V670.7z"/>
		<path d="M1817.7,282.8h-81.6v-55.5c46.4-10.3,85.9-33.8,118.5-70.6c32.6-36.8,59.9-89,81.8-156.7h53v227.3h153.4v55.5h-154.4
			v353.5c0,30.8,4.4,53.2,13.3,67.1c8.8,14,23.1,21,43,21c23.3,0,41.2-8.2,53.6-24.7c12.4-16.5,18.6-40.1,18.6-70.8v-14.3h54.4v14.3
			c0,68.7-15.4,120.8-46.2,156.4c-30.8,35.6-75.9,53.4-135.3,53.4c-55.9,0-98.5-15.3-127.9-45.9c-29.4-30.6-44-75.1-44-133.6V282.8z
			"/>
	</g>
	<circle cx="2391.2" cy="732" r="108.8"/>
</g>
</svg>
